<mxfile host="app.diagrams.net" modified="2024-05-07T17:54:11.121Z" agent="Mozilla/5.0 (Windows NT 10.0; Win64; x64) AppleWebKit/537.36 (KHTML, like Gecko) Chrome/124.0.0.0 Safari/537.36" etag="51WcxZpuZN5Pzc62n3NY" version="24.3.1" type="device">
  <diagram name="Page-1" id="p_T3wYG8ufAUsEA7aaF9">
    <mxGraphModel dx="1384" dy="1816" grid="1" gridSize="10" guides="1" tooltips="1" connect="1" arrows="1" fold="1" page="1" pageScale="1" pageWidth="850" pageHeight="1100" math="0" shadow="0">
      <root>
        <mxCell id="0" />
        <mxCell id="1" parent="0" />
        <mxCell id="7gmIB-gSUYwTTExn6vW_-1" value="Customer" style="swimlane;fontStyle=0;childLayout=stackLayout;horizontal=1;startSize=26;fillColor=none;horizontalStack=0;resizeParent=1;resizeParentMax=0;resizeLast=0;collapsible=1;marginBottom=0;whiteSpace=wrap;html=1;" parent="1" vertex="1">
          <mxGeometry x="30" y="274" width="420" height="276" as="geometry" />
        </mxCell>
        <mxCell id="7gmIB-gSUYwTTExn6vW_-2" value="- name: string" style="text;strokeColor=none;fillColor=none;align=left;verticalAlign=top;spacingLeft=4;spacingRight=4;overflow=hidden;rotatable=0;points=[[0,0.5],[1,0.5]];portConstraint=eastwest;whiteSpace=wrap;html=1;" parent="7gmIB-gSUYwTTExn6vW_-1" vertex="1">
          <mxGeometry y="26" width="420" height="26" as="geometry" />
        </mxCell>
        <mxCell id="7gmIB-gSUYwTTExn6vW_-3" value="- address: string" style="text;strokeColor=none;fillColor=none;align=left;verticalAlign=top;spacingLeft=4;spacingRight=4;overflow=hidden;rotatable=0;points=[[0,0.5],[1,0.5]];portConstraint=eastwest;whiteSpace=wrap;html=1;" parent="7gmIB-gSUYwTTExn6vW_-1" vertex="1">
          <mxGeometry y="52" width="420" height="26" as="geometry" />
        </mxCell>
        <mxCell id="7gmIB-gSUYwTTExn6vW_-4" value="- contactNumber: string" style="text;strokeColor=none;fillColor=none;align=left;verticalAlign=top;spacingLeft=4;spacingRight=4;overflow=hidden;rotatable=0;points=[[0,0.5],[1,0.5]];portConstraint=eastwest;whiteSpace=wrap;html=1;" parent="7gmIB-gSUYwTTExn6vW_-1" vertex="1">
          <mxGeometry y="78" width="420" height="26" as="geometry" />
        </mxCell>
        <mxCell id="7gmIB-gSUYwTTExn6vW_-14" value="" style="line;strokeWidth=1;fillColor=none;align=left;verticalAlign=middle;spacingTop=-1;spacingLeft=3;spacingRight=3;rotatable=0;labelPosition=right;points=[];portConstraint=eastwest;strokeColor=inherit;" parent="7gmIB-gSUYwTTExn6vW_-1" vertex="1">
          <mxGeometry y="104" width="420" height="8" as="geometry" />
        </mxCell>
        <mxCell id="7gmIB-gSUYwTTExn6vW_-15" value="+ getName(): string" style="text;strokeColor=none;fillColor=none;align=left;verticalAlign=top;spacingLeft=4;spacingRight=4;overflow=hidden;rotatable=0;points=[[0,0.5],[1,0.5]];portConstraint=eastwest;whiteSpace=wrap;html=1;" parent="7gmIB-gSUYwTTExn6vW_-1" vertex="1">
          <mxGeometry y="112" width="420" height="26" as="geometry" />
        </mxCell>
        <mxCell id="7gmIB-gSUYwTTExn6vW_-16" value="+ getAddress(): string" style="text;strokeColor=none;fillColor=none;align=left;verticalAlign=top;spacingLeft=4;spacingRight=4;overflow=hidden;rotatable=0;points=[[0,0.5],[1,0.5]];portConstraint=eastwest;whiteSpace=wrap;html=1;" parent="7gmIB-gSUYwTTExn6vW_-1" vertex="1">
          <mxGeometry y="138" width="420" height="26" as="geometry" />
        </mxCell>
        <mxCell id="7gmIB-gSUYwTTExn6vW_-17" value="+ getContactNumber(): string" style="text;strokeColor=none;fillColor=none;align=left;verticalAlign=top;spacingLeft=4;spacingRight=4;overflow=hidden;rotatable=0;points=[[0,0.5],[1,0.5]];portConstraint=eastwest;whiteSpace=wrap;html=1;" parent="7gmIB-gSUYwTTExn6vW_-1" vertex="1">
          <mxGeometry y="164" width="420" height="26" as="geometry" />
        </mxCell>
        <mxCell id="7gmIB-gSUYwTTExn6vW_-20" value="+ processCashPayment(amount: double): void" style="text;strokeColor=none;fillColor=none;align=left;verticalAlign=top;spacingLeft=4;spacingRight=4;overflow=hidden;rotatable=0;points=[[0,0.5],[1,0.5]];portConstraint=eastwest;whiteSpace=wrap;html=1;" parent="7gmIB-gSUYwTTExn6vW_-1" vertex="1">
          <mxGeometry y="190" width="420" height="26" as="geometry" />
        </mxCell>
        <mxCell id="7gmIB-gSUYwTTExn6vW_-18" value="+ processInstallmentPayment(amount: double, terms: string) void" style="text;strokeColor=none;fillColor=none;align=left;verticalAlign=top;spacingLeft=4;spacingRight=4;overflow=hidden;rotatable=0;points=[[0,0.5],[1,0.5]];portConstraint=eastwest;whiteSpace=wrap;html=1;" parent="7gmIB-gSUYwTTExn6vW_-1" vertex="1">
          <mxGeometry y="216" width="420" height="26" as="geometry" />
        </mxCell>
        <mxCell id="7gmIB-gSUYwTTExn6vW_-21" value="" style="line;strokeWidth=1;fillColor=none;align=left;verticalAlign=middle;spacingTop=-1;spacingLeft=3;spacingRight=3;rotatable=0;labelPosition=right;points=[];portConstraint=eastwest;strokeColor=inherit;" parent="7gmIB-gSUYwTTExn6vW_-1" vertex="1">
          <mxGeometry y="242" width="420" height="8" as="geometry" />
        </mxCell>
        <mxCell id="7gmIB-gSUYwTTExn6vW_-22" value="&amp;lt;&amp;lt;abstract&amp;gt;&amp;gt;" style="text;strokeColor=none;fillColor=none;align=center;verticalAlign=middle;spacingLeft=4;spacingRight=4;overflow=hidden;rotatable=0;points=[[0,0.5],[1,0.5]];portConstraint=eastwest;whiteSpace=wrap;html=1;" parent="7gmIB-gSUYwTTExn6vW_-1" vertex="1">
          <mxGeometry y="250" width="420" height="26" as="geometry" />
        </mxCell>
        <mxCell id="P-1q22z_4WsZKtqIBfX3-1" value="RetailCustomer" style="swimlane;fontStyle=0;childLayout=stackLayout;horizontal=1;startSize=26;fillColor=none;horizontalStack=0;resizeParent=1;resizeParentMax=0;resizeLast=0;collapsible=1;marginBottom=0;whiteSpace=wrap;html=1;" vertex="1" parent="1">
          <mxGeometry x="730" y="-10" width="420" height="250" as="geometry" />
        </mxCell>
        <mxCell id="P-1q22z_4WsZKtqIBfX3-2" value="&amp;nbsp; &amp;nbsp;" style="text;strokeColor=none;fillColor=none;align=left;verticalAlign=top;spacingLeft=4;spacingRight=4;overflow=hidden;rotatable=0;points=[[0,0.5],[1,0.5]];portConstraint=eastwest;whiteSpace=wrap;html=1;" vertex="1" parent="P-1q22z_4WsZKtqIBfX3-1">
          <mxGeometry y="26" width="420" height="26" as="geometry" />
        </mxCell>
        <mxCell id="P-1q22z_4WsZKtqIBfX3-11" value="" style="line;strokeWidth=1;fillColor=none;align=left;verticalAlign=middle;spacingTop=-1;spacingLeft=3;spacingRight=3;rotatable=0;labelPosition=right;points=[];portConstraint=eastwest;strokeColor=inherit;" vertex="1" parent="P-1q22z_4WsZKtqIBfX3-1">
          <mxGeometry y="52" width="420" height="8" as="geometry" />
        </mxCell>
        <mxCell id="P-1q22z_4WsZKtqIBfX3-12" value="+ processCashPayment(amount: double)" style="text;strokeColor=none;fillColor=none;align=left;verticalAlign=top;spacingLeft=4;spacingRight=4;overflow=hidden;rotatable=0;points=[[0,0.5],[1,0.5]];portConstraint=eastwest;whiteSpace=wrap;html=1;" vertex="1" parent="P-1q22z_4WsZKtqIBfX3-1">
          <mxGeometry y="60" width="420" height="26" as="geometry" />
        </mxCell>
        <mxCell id="P-1q22z_4WsZKtqIBfX3-3" value="+ processInstallmentPayment(amount: double, terms:string): void" style="text;strokeColor=none;fillColor=none;align=left;verticalAlign=top;spacingLeft=4;spacingRight=4;overflow=hidden;rotatable=0;points=[[0,0.5],[1,0.5]];portConstraint=eastwest;whiteSpace=wrap;html=1;" vertex="1" parent="P-1q22z_4WsZKtqIBfX3-1">
          <mxGeometry y="86" width="420" height="26" as="geometry" />
        </mxCell>
        <mxCell id="P-1q22z_4WsZKtqIBfX3-9" value="" style="line;strokeWidth=1;fillColor=none;align=left;verticalAlign=middle;spacingTop=-1;spacingLeft=3;spacingRight=3;rotatable=0;labelPosition=right;points=[];portConstraint=eastwest;strokeColor=inherit;" vertex="1" parent="P-1q22z_4WsZKtqIBfX3-1">
          <mxGeometry y="112" width="420" height="8" as="geometry" />
        </mxCell>
        <mxCell id="P-1q22z_4WsZKtqIBfX3-10" value="Customer" style="text;strokeColor=none;fillColor=none;align=center;verticalAlign=top;spacingLeft=4;spacingRight=4;overflow=hidden;rotatable=0;points=[[0,0.5],[1,0.5]];portConstraint=eastwest;whiteSpace=wrap;html=1;" vertex="1" parent="P-1q22z_4WsZKtqIBfX3-1">
          <mxGeometry y="120" width="420" height="26" as="geometry" />
        </mxCell>
        <mxCell id="P-1q22z_4WsZKtqIBfX3-13" value="" style="line;strokeWidth=1;fillColor=none;align=left;verticalAlign=middle;spacingTop=-1;spacingLeft=3;spacingRight=3;rotatable=0;labelPosition=right;points=[];portConstraint=eastwest;strokeColor=inherit;" vertex="1" parent="P-1q22z_4WsZKtqIBfX3-1">
          <mxGeometry y="146" width="420" height="8" as="geometry" />
        </mxCell>
        <mxCell id="P-1q22z_4WsZKtqIBfX3-14" value="&amp;nbsp; &amp;nbsp;&amp;nbsp;" style="text;strokeColor=none;fillColor=none;align=left;verticalAlign=top;spacingLeft=4;spacingRight=4;overflow=hidden;rotatable=0;points=[[0,0.5],[1,0.5]];portConstraint=eastwest;whiteSpace=wrap;html=1;" vertex="1" parent="P-1q22z_4WsZKtqIBfX3-1">
          <mxGeometry y="154" width="420" height="26" as="geometry" />
        </mxCell>
        <mxCell id="P-1q22z_4WsZKtqIBfX3-15" value="" style="line;strokeWidth=1;fillColor=none;align=left;verticalAlign=middle;spacingTop=-1;spacingLeft=3;spacingRight=3;rotatable=0;labelPosition=right;points=[];portConstraint=eastwest;strokeColor=inherit;" vertex="1" parent="P-1q22z_4WsZKtqIBfX3-1">
          <mxGeometry y="180" width="420" height="8" as="geometry" />
        </mxCell>
        <mxCell id="P-1q22z_4WsZKtqIBfX3-16" value="- name: string&lt;div&gt;- address: string&lt;/div&gt;&lt;div&gt;- contactNumber: string&lt;/div&gt;" style="text;strokeColor=none;fillColor=none;align=left;verticalAlign=top;spacingLeft=4;spacingRight=4;overflow=hidden;rotatable=0;points=[[0,0.5],[1,0.5]];portConstraint=eastwest;whiteSpace=wrap;html=1;" vertex="1" parent="P-1q22z_4WsZKtqIBfX3-1">
          <mxGeometry y="188" width="420" height="62" as="geometry" />
        </mxCell>
        <mxCell id="P-1q22z_4WsZKtqIBfX3-17" value="RegularCustomer" style="swimlane;fontStyle=0;childLayout=stackLayout;horizontal=1;startSize=26;fillColor=none;horizontalStack=0;resizeParent=1;resizeParentMax=0;resizeLast=0;collapsible=1;marginBottom=0;whiteSpace=wrap;html=1;" vertex="1" parent="1">
          <mxGeometry x="730" y="310" width="420" height="250" as="geometry" />
        </mxCell>
        <mxCell id="P-1q22z_4WsZKtqIBfX3-22" value="&amp;nbsp; &amp;nbsp;" style="text;strokeColor=none;fillColor=none;align=left;verticalAlign=top;spacingLeft=4;spacingRight=4;overflow=hidden;rotatable=0;points=[[0,0.5],[1,0.5]];portConstraint=eastwest;whiteSpace=wrap;html=1;" vertex="1" parent="P-1q22z_4WsZKtqIBfX3-17">
          <mxGeometry y="26" width="420" height="26" as="geometry" />
        </mxCell>
        <mxCell id="P-1q22z_4WsZKtqIBfX3-21" value="" style="line;strokeWidth=1;fillColor=none;align=left;verticalAlign=middle;spacingTop=-1;spacingLeft=3;spacingRight=3;rotatable=0;labelPosition=right;points=[];portConstraint=eastwest;strokeColor=inherit;" vertex="1" parent="P-1q22z_4WsZKtqIBfX3-17">
          <mxGeometry y="52" width="420" height="8" as="geometry" />
        </mxCell>
        <mxCell id="P-1q22z_4WsZKtqIBfX3-18" value="+ processCashPayment(amount: double)" style="text;strokeColor=none;fillColor=none;align=left;verticalAlign=top;spacingLeft=4;spacingRight=4;overflow=hidden;rotatable=0;points=[[0,0.5],[1,0.5]];portConstraint=eastwest;whiteSpace=wrap;html=1;" vertex="1" parent="P-1q22z_4WsZKtqIBfX3-17">
          <mxGeometry y="60" width="420" height="26" as="geometry" />
        </mxCell>
        <mxCell id="P-1q22z_4WsZKtqIBfX3-19" value="+ processInstallmentPayment(amount: double, terms: string): void" style="text;strokeColor=none;fillColor=none;align=left;verticalAlign=top;spacingLeft=4;spacingRight=4;overflow=hidden;rotatable=0;points=[[0,0.5],[1,0.5]];portConstraint=eastwest;whiteSpace=wrap;html=1;" vertex="1" parent="P-1q22z_4WsZKtqIBfX3-17">
          <mxGeometry y="86" width="420" height="26" as="geometry" />
        </mxCell>
        <mxCell id="P-1q22z_4WsZKtqIBfX3-23" value="" style="line;strokeWidth=1;fillColor=none;align=left;verticalAlign=middle;spacingTop=-1;spacingLeft=3;spacingRight=3;rotatable=0;labelPosition=right;points=[];portConstraint=eastwest;strokeColor=inherit;" vertex="1" parent="P-1q22z_4WsZKtqIBfX3-17">
          <mxGeometry y="112" width="420" height="8" as="geometry" />
        </mxCell>
        <mxCell id="P-1q22z_4WsZKtqIBfX3-24" value="Customer" style="text;strokeColor=none;fillColor=none;align=left;verticalAlign=top;spacingLeft=4;spacingRight=4;overflow=hidden;rotatable=0;points=[[0,0.5],[1,0.5]];portConstraint=eastwest;whiteSpace=wrap;html=1;" vertex="1" parent="P-1q22z_4WsZKtqIBfX3-17">
          <mxGeometry y="120" width="420" height="26" as="geometry" />
        </mxCell>
        <mxCell id="P-1q22z_4WsZKtqIBfX3-25" value="" style="line;strokeWidth=1;fillColor=none;align=left;verticalAlign=middle;spacingTop=-1;spacingLeft=3;spacingRight=3;rotatable=0;labelPosition=right;points=[];portConstraint=eastwest;strokeColor=inherit;" vertex="1" parent="P-1q22z_4WsZKtqIBfX3-17">
          <mxGeometry y="146" width="420" height="8" as="geometry" />
        </mxCell>
        <mxCell id="P-1q22z_4WsZKtqIBfX3-26" value="&amp;nbsp; &amp;nbsp;" style="text;strokeColor=none;fillColor=none;align=left;verticalAlign=top;spacingLeft=4;spacingRight=4;overflow=hidden;rotatable=0;points=[[0,0.5],[1,0.5]];portConstraint=eastwest;whiteSpace=wrap;html=1;" vertex="1" parent="P-1q22z_4WsZKtqIBfX3-17">
          <mxGeometry y="154" width="420" height="26" as="geometry" />
        </mxCell>
        <mxCell id="P-1q22z_4WsZKtqIBfX3-27" value="" style="line;strokeWidth=1;fillColor=none;align=left;verticalAlign=middle;spacingTop=-1;spacingLeft=3;spacingRight=3;rotatable=0;labelPosition=right;points=[];portConstraint=eastwest;strokeColor=inherit;" vertex="1" parent="P-1q22z_4WsZKtqIBfX3-17">
          <mxGeometry y="180" width="420" height="8" as="geometry" />
        </mxCell>
        <mxCell id="P-1q22z_4WsZKtqIBfX3-28" value="- name: string&lt;div&gt;- address: string&lt;/div&gt;&lt;div&gt;- contactNumber: string&lt;/div&gt;" style="text;strokeColor=none;fillColor=none;align=left;verticalAlign=top;spacingLeft=4;spacingRight=4;overflow=hidden;rotatable=0;points=[[0,0.5],[1,0.5]];portConstraint=eastwest;whiteSpace=wrap;html=1;" vertex="1" parent="P-1q22z_4WsZKtqIBfX3-17">
          <mxGeometry y="188" width="420" height="62" as="geometry" />
        </mxCell>
        <mxCell id="P-1q22z_4WsZKtqIBfX3-29" value="Product" style="swimlane;fontStyle=0;childLayout=stackLayout;horizontal=1;startSize=26;fillColor=none;horizontalStack=0;resizeParent=1;resizeParentMax=0;resizeLast=0;collapsible=1;marginBottom=0;whiteSpace=wrap;html=1;" vertex="1" parent="1">
          <mxGeometry x="740" y="688" width="420" height="210" as="geometry" />
        </mxCell>
        <mxCell id="P-1q22z_4WsZKtqIBfX3-30" value="- id: int&lt;div&gt;- description: string&lt;/div&gt;&lt;div&gt;- quantity: int&lt;/div&gt;&lt;div&gt;- itemPrice: dboule&lt;/div&gt;" style="text;strokeColor=none;fillColor=none;align=left;verticalAlign=top;spacingLeft=4;spacingRight=4;overflow=hidden;rotatable=0;points=[[0,0.5],[1,0.5]];portConstraint=eastwest;whiteSpace=wrap;html=1;" vertex="1" parent="P-1q22z_4WsZKtqIBfX3-29">
          <mxGeometry y="26" width="420" height="74" as="geometry" />
        </mxCell>
        <mxCell id="P-1q22z_4WsZKtqIBfX3-33" value="" style="line;strokeWidth=1;fillColor=none;align=left;verticalAlign=middle;spacingTop=-1;spacingLeft=3;spacingRight=3;rotatable=0;labelPosition=right;points=[];portConstraint=eastwest;strokeColor=inherit;" vertex="1" parent="P-1q22z_4WsZKtqIBfX3-29">
          <mxGeometry y="100" width="420" height="8" as="geometry" />
        </mxCell>
        <mxCell id="P-1q22z_4WsZKtqIBfX3-35" value="+ process(): void&lt;div&gt;+ calculateTotalAmount(): double&lt;/div&gt;&lt;div&gt;+ getID(): int&lt;/div&gt;&lt;div&gt;+ getDescription(): string&lt;/div&gt;&lt;div&gt;+ getQuantity(): int&lt;/div&gt;&lt;div&gt;+ getItemPrices(): double&lt;/div&gt;" style="text;strokeColor=none;fillColor=none;align=left;verticalAlign=top;spacingLeft=4;spacingRight=4;overflow=hidden;rotatable=0;points=[[0,0.5],[1,0.5]];portConstraint=eastwest;whiteSpace=wrap;html=1;" vertex="1" parent="P-1q22z_4WsZKtqIBfX3-29">
          <mxGeometry y="108" width="420" height="102" as="geometry" />
        </mxCell>
        <mxCell id="P-1q22z_4WsZKtqIBfX3-37" value="&amp;lt;&amp;lt; static &amp;gt;&amp;gt;&lt;div&gt;Transaction&lt;/div&gt;" style="swimlane;fontStyle=0;childLayout=stackLayout;horizontal=1;startSize=26;fillColor=none;horizontalStack=0;resizeParent=1;resizeParentMax=0;resizeLast=0;collapsible=1;marginBottom=0;whiteSpace=wrap;html=1;" vertex="1" parent="1">
          <mxGeometry x="48" y="688" width="420" height="154" as="geometry" />
        </mxCell>
        <mxCell id="P-1q22z_4WsZKtqIBfX3-38" value="- generateID: int&lt;div&gt;- id: int&lt;/div&gt;&lt;div&gt;- date: string&lt;/div&gt;&lt;div&gt;- customerType: string&lt;/div&gt;&lt;div&gt;- paymentType: string&lt;/div&gt;&lt;div&gt;- products: vector &amp;lt;Product&amp;gt;&lt;/div&gt;" style="text;strokeColor=none;fillColor=none;align=left;verticalAlign=top;spacingLeft=4;spacingRight=4;overflow=hidden;rotatable=0;points=[[0,0.5],[1,0.5]];portConstraint=eastwest;whiteSpace=wrap;html=1;" vertex="1" parent="P-1q22z_4WsZKtqIBfX3-37">
          <mxGeometry y="26" width="420" height="94" as="geometry" />
        </mxCell>
        <mxCell id="P-1q22z_4WsZKtqIBfX3-39" value="" style="line;strokeWidth=1;fillColor=none;align=left;verticalAlign=middle;spacingTop=-1;spacingLeft=3;spacingRight=3;rotatable=0;labelPosition=right;points=[];portConstraint=eastwest;strokeColor=inherit;" vertex="1" parent="P-1q22z_4WsZKtqIBfX3-37">
          <mxGeometry y="120" width="420" height="8" as="geometry" />
        </mxCell>
        <mxCell id="P-1q22z_4WsZKtqIBfX3-41" value="+ process(): void" style="text;strokeColor=none;fillColor=none;align=left;verticalAlign=top;spacingLeft=4;spacingRight=4;overflow=hidden;rotatable=0;points=[[0,0.5],[1,0.5]];portConstraint=eastwest;whiteSpace=wrap;html=1;" vertex="1" parent="P-1q22z_4WsZKtqIBfX3-37">
          <mxGeometry y="128" width="420" height="26" as="geometry" />
        </mxCell>
        <mxCell id="P-1q22z_4WsZKtqIBfX3-66" value="" style="endArrow=none;html=1;rounded=0;exitX=1;exitY=0.5;exitDx=0;exitDy=0;entryX=0.001;entryY=0.639;entryDx=0;entryDy=0;entryPerimeter=0;" edge="1" parent="1" source="P-1q22z_4WsZKtqIBfX3-38" target="P-1q22z_4WsZKtqIBfX3-30">
          <mxGeometry width="50" height="50" relative="1" as="geometry">
            <mxPoint x="500" y="680" as="sourcePoint" />
            <mxPoint x="710" y="760" as="targetPoint" />
          </mxGeometry>
        </mxCell>
        <mxCell id="P-1q22z_4WsZKtqIBfX3-68" value="" style="endArrow=none;html=1;rounded=0;entryX=0.469;entryY=1.051;entryDx=0;entryDy=0;entryPerimeter=0;" edge="1" parent="1">
          <mxGeometry width="50" height="50" relative="1" as="geometry">
            <mxPoint x="936" y="310" as="sourcePoint" />
            <mxPoint x="936" y="240.00200000000004" as="targetPoint" />
          </mxGeometry>
        </mxCell>
        <mxCell id="P-1q22z_4WsZKtqIBfX3-69" value="" style="endArrow=none;html=1;rounded=0;entryX=0.516;entryY=1.026;entryDx=0;entryDy=0;entryPerimeter=0;exitX=0.471;exitY=0.001;exitDx=0;exitDy=0;exitPerimeter=0;" edge="1" parent="1" source="P-1q22z_4WsZKtqIBfX3-37" target="7gmIB-gSUYwTTExn6vW_-22">
          <mxGeometry width="50" height="50" relative="1" as="geometry">
            <mxPoint x="200" y="650" as="sourcePoint" />
            <mxPoint x="250" y="600" as="targetPoint" />
          </mxGeometry>
        </mxCell>
        <mxCell id="P-1q22z_4WsZKtqIBfX3-74" value="" style="endArrow=block;endSize=16;endFill=0;html=1;rounded=0;exitX=0;exitY=0.5;exitDx=0;exitDy=0;entryX=1;entryY=0.5;entryDx=0;entryDy=0;" edge="1" parent="1" source="P-1q22z_4WsZKtqIBfX3-3" target="7gmIB-gSUYwTTExn6vW_-3">
          <mxGeometry x="0.1342" y="30" width="160" relative="1" as="geometry">
            <mxPoint x="720" y="170" as="sourcePoint" />
            <mxPoint x="570" y="250" as="targetPoint" />
            <Array as="points">
              <mxPoint x="600" y="90" />
              <mxPoint x="600" y="339" />
            </Array>
            <mxPoint as="offset" />
          </mxGeometry>
        </mxCell>
        <mxCell id="P-1q22z_4WsZKtqIBfX3-75" value="" style="endArrow=block;endSize=16;endFill=0;html=1;rounded=0;exitX=0.004;exitY=0.746;exitDx=0;exitDy=0;entryX=1;entryY=0.5;entryDx=0;entryDy=0;exitPerimeter=0;" edge="1" parent="1" source="P-1q22z_4WsZKtqIBfX3-18" target="7gmIB-gSUYwTTExn6vW_-3">
          <mxGeometry x="0.1342" y="30" width="160" relative="1" as="geometry">
            <mxPoint x="740" y="180" as="sourcePoint" />
            <mxPoint x="460" y="430" as="targetPoint" />
            <Array as="points">
              <mxPoint x="600" y="390" />
              <mxPoint x="600" y="339" />
            </Array>
            <mxPoint as="offset" />
          </mxGeometry>
        </mxCell>
      </root>
    </mxGraphModel>
  </diagram>
</mxfile>
